<svg width="64" height="64" viewBox="0 0 64 64" xmlns="http://www.w3.org/2000/svg">
  <circle cx="22" cy="22" r="10" fill="#f4c542"/>
  <g stroke="#f4c542" stroke-width="3" stroke-linecap="round">
    <line x1="22" y1="6" x2="22" y2="12"/>
    <line x1="22" y1="32" x2="22" y2="38"/>
    <line x1="6" y1="22" x2="12" y2="22"/>
    <line x1="32" y1="22" x2="38" y2="22"/>
  </g>
  <path d="M22 42c0-6 4.8-11 10.8-11 3.8 0 7.1 2 8.9 5 0.9-0.3 1.9-0.5 3-0.5 4.7 0 8.6 3.6 8.6 8s-3.9 8-8.6 8H24.2C19.4 51.5 16 48 16 43.5 16 45.9 18.8 42 22 42z" fill="#d5d7e2"/>
</svg>
